<?xml version="1.0" encoding="UTF-8"?><svg xmlns="http://www.w3.org/2000/svg" viewBox="0 0 609.71 136.61"><defs><style>.d{fill:#ee827c;}</style></defs><g id="a"/><g id="b"><g id="c"><g><g><path class="d" d="M585.78,48.31l7.45-3.33-8.71-19.07-10.79,4.82,3.37,7.37h-56.76v18.22h42.23c-3.93,21.57-19.64,34.1-42.23,34.53v19.8c19.58,0,35.75-7.13,47.13-18.68l16.32,18.68,13.75-12.29-19.02-21.76c4.31-8.47,6.82-18.08,7.25-28.29Z"/><path class="d" d="M155.65,61.39c-.56,3.12-8.65,23.88-13.66,32.14l17.41,6.22c6.97-17.08,10.75-33.84,11.05-34.75l-14.8-3.61Z"/><path class="d" d="M212.11,64.67c.09,.21,8.97,15.66,11.39,32.95l18.16-4.52c-4.15-13.83-15-33.64-15.39-34.52l-14.17,6.08Z"/><polygon class="d" points="601.01 23.52 590.22 28.35 598.93 47.42 609.71 42.59 601.01 23.52"/><path class="d" d="M196.24,59.79c-1.47-.97-4.89-2.61-4.89-4.75,0-5.38,12.56-8.32,24.52-10.57v-14.23h-52.94v14.09h19.37c-3.54,2.57-7.07,5.74-8.08,11.11-1.29,6.89,2.99,10.75,7.82,13.94,3.11,2.06,6.32,4.18,9.06,7.33,4.12,4.72,4.76,10.79,1.61,15.1-3.38,4.62-11.36,3.1-19.97,.39l-5.51,15.18c7.38,3.2,13.95,4.53,19.68,4.53,10.8,0,18.55-4.75,22.86-10.64,7.02-9.59,6.07-23.05-2.35-32.68-3.57-4.08-7.66-6.47-11.18-8.8Z"/><path class="d" d="M498.64,60.38l-.09-17.3c-5,.56-20.14,2.36-34.53,7.91V28.19h-18.69V61.58c-7.11,6.07-11.89,14.08-11.62,24.69,.2,7.83,3.43,14.39,9.34,18.96,7.88,6.09,19.64,7.87,30.66,7.87,10.15,0,19.65-1.5,24.94-2.52v-17.02c-13.59,3.03-43.93,5.61-43.93-10.02,0-18.09,43.35-23.08,43.93-23.15Z"/><path class="d" d="M401.6,27.23h-18.75l1.51,10.21h-42.16v14.09h44.24l.88,5.93c-14.8-1.6-24.59,1.14-31.36,6.42-4.58,3.57-10.18,10.48-9.26,23.08,1.58,21.6,26.71,23.13,36.98,23.13,8.69,0,16.77-1.13,21.41-1.94v-16.95c-12.57,2.61-41.27,4.94-40.86-8.36,.19-6.03,5.48-9.19,11.93-10.15,11.06-1.65,27.47,1.5,31.87,2.75l-3.19-23.91h16.98v-14.09h-18.87l-1.36-10.21Z"/><path class="d" d="M282.93,77.65v.03c.4-.04,.42-.06,0-.03Z"/><path class="d" d="M308.99,57.25c-8.44-2.46-13.37-1.18-15.47-.28l23.56-12.47v-13.5h-60.96v12.99h28.19l-31.34,21.84,5.98,10.79c14-5.99,24.7-7.5,31.43-7.42,11.58,.14,18.74,5.94,18.8,13.38,.04,5.04-1.78,7.45-5.41,10.15,.4-3-2.27-15.91-20.83-15.06-5.25,.24-19.37,3.85-19.37,15.7s12.07,17.55,22.55,17.55c34.51,0,39.37-20.09,39.37-29.41,0-6.9-3.12-20.37-16.5-24.27Zm-32.22,35.78c-.14-2.22,2.16-4.85,7.09-4.79,4.57,.06,7.02,2.33,7.02,4.67,0,6.51-13.74,6.2-14.11,.11Z"/></g><g><path class="d" d="M115.41,57.71C115.41,25.84,89.58,0,57.71,0S0,25.84,0,57.71c0,.36,.02,.72,.03,1.08H.01C.01,106.77,57.23,136.36,57.71,136.61h.01c.48-.25,57.7-29.84,57.7-77.83h-.03c0-.36,.03-.71,.03-1.08Zm-57.71,44.65c-24.66,0-44.65-19.99-44.65-44.65S33.05,13.06,57.7,13.06s44.65,19.99,44.65,44.65-19.99,44.65-44.65,44.65Z"/><polygon class="d" points="67.17 26.16 69.1 44.4 76.34 44.4 81.8 26.16 67.17 26.16"/><path class="d" d="M75.85,49.3c.1-.6,.18-1.21,.25-1.82h-9.2l-2.27-14.45h-31.08v16.27h24.89c-.21,.79-.45,1.57-.73,2.34-2.19,6.03-6.43,11.08-11.87,14.31-3.63,2.16-7.79,3.5-12.25,3.79v17.07c8.98-.36,17.27-3.37,24.12-8.27,5.49,3.93,11.91,6.65,18.86,7.76v-17.41c-2.49-.66-4.84-1.66-7-2.94,3.13-4.98,5.31-10.61,6.27-16.65Z"/><polygon class="d" points="88.14 33.26 78.62 46.46 81.72 50.14 95.59 43.77 88.14 33.26"/></g></g></g></g></svg>