<?xml version="1.0" encoding="UTF-8"?><svg xmlns="http://www.w3.org/2000/svg" viewBox="0 0 300 355.1"><defs><style>.d{fill:#ee827c;}</style></defs><g id="a"/><g id="b"><g id="c"><g><path class="d" d="M300,150C300,67.16,232.84,0,150,0S0,67.16,0,150c0,.94,.05,1.86,.07,2.79H.03C.03,277.52,148.75,354.45,150,355.09h.03c1.25-.64,149.97-77.57,149.97-202.3h-.07c.02-.93,.07-1.86,.07-2.79Zm-150.01,116.05c-64.09,0-116.05-51.96-116.05-116.05S85.9,33.95,149.99,33.95s116.05,51.96,116.05,116.05-51.96,116.05-116.05,116.05Z"/><polygon class="d" points="174.6 67.99 179.6 115.42 198.42 115.42 212.63 67.99 174.6 67.99"/><path class="d" d="M197.15,128.15c.25-1.57,.47-3.14,.65-4.73h-23.91l-5.91-37.55H87.19v42.28h64.7c-.55,2.06-1.18,4.09-1.9,6.07-5.7,15.68-16.71,28.8-30.85,37.2-9.43,5.61-20.26,9.1-31.84,9.86v44.38c23.33-.94,44.88-8.77,62.69-21.51,14.28,10.21,30.95,17.28,49.03,20.16v-45.25c-6.47-1.71-12.57-4.3-18.18-7.64,8.14-12.93,13.8-27.57,16.3-43.27Z"/><polygon class="d" points="229.11 86.46 204.36 120.75 212.41 130.34 248.46 113.76 229.11 86.46"/></g></g></g></svg>